<?xml version="1.0" standalone="no"?><!-- Generator: Gravit.io --><svg xmlns="http://www.w3.org/2000/svg" xmlns:xlink="http://www.w3.org/1999/xlink" style="isolation:isolate" viewBox="492.5 329 475 167" width="475" height="167"><path d=" M 927.524 399.738 L 928.1 394.77 L 960.86 394.77 L 960.212 399.738 L 927.524 399.738 L 927.524 399.738 Z  M 745.508 391.098 L 745.508 391.098 Q 736.724 391.098 731.972 386.382 L 731.972 386.382 L 731.972 386.382 Q 727.22 381.666 727.22 372.234 L 727.22 372.234 L 727.22 372.234 Q 727.22 364.314 729.596 356.97 L 729.596 356.97 L 729.596 356.97 Q 731.972 349.626 737.192 344.802 L 737.192 344.802 L 737.192 344.802 Q 742.412 339.978 750.476 339.978 L 750.476 339.978 L 750.476 339.978 Q 759.332 339.978 764.084 344.694 L 764.084 344.694 L 764.084 344.694 Q 768.836 349.41 768.836 358.914 L 768.836 358.914 L 768.836 358.914 Q 768.836 366.762 766.424 374.142 L 766.424 374.142 L 766.424 374.142 Q 764.012 381.522 758.756 386.31 L 758.756 386.31 L 758.756 386.31 Q 753.5 391.098 745.508 391.098 L 745.508 391.098 L 745.508 391.098 Z  M 745.148 383.178 L 745.148 383.178 Q 750.548 383.178 753.716 379.362 L 753.716 379.362 L 753.716 379.362 Q 756.884 375.546 758.18 370.11 L 758.18 370.11 L 758.18 370.11 Q 759.476 364.674 759.476 359.274 L 759.476 359.274 L 759.476 359.274 Q 759.476 353.802 757.316 350.85 L 757.316 350.85 L 757.316 350.85 Q 755.156 347.898 750.836 347.898 L 750.836 347.898 L 750.836 347.898 Q 745.436 347.898 742.232 351.714 L 742.232 351.714 L 742.232 351.714 Q 739.028 355.53 737.768 360.966 L 737.768 360.966 L 737.768 360.966 Q 736.508 366.402 736.508 371.874 L 736.508 371.874 L 736.508 371.874 Q 736.508 377.346 738.668 380.262 L 738.668 380.262 L 738.668 380.262 Q 740.828 383.178 745.148 383.178 L 745.148 383.178 L 745.148 383.178 Z  M 771.572 390.234 L 776.828 352.362 L 783.812 352.362 L 783.812 358.122 L 783.812 358.122 Q 785.252 355.17 787.088 353.334 L 787.088 353.334 L 787.088 353.334 Q 788.924 351.498 791.588 351.498 L 791.588 351.498 L 791.588 351.498 Q 792.956 351.498 793.892 351.75 L 793.892 351.75 L 793.892 351.75 Q 794.828 352.002 795.044 352.074 L 795.044 352.074 L 793.964 360.426 L 791.228 360.426 L 791.228 360.426 Q 788.06 360.426 785.864 362.442 L 785.864 362.442 L 785.864 362.442 Q 783.668 364.458 783.02 369.138 L 783.02 369.138 L 780.068 390.234 L 771.572 390.234 L 771.572 390.234 Z  M 803.54 391.098 L 803.54 391.098 Q 799.508 391.098 797.708 388.938 L 797.708 388.938 L 797.708 388.938 Q 795.908 386.778 795.908 383.322 L 795.908 383.322 L 795.908 383.322 Q 795.908 382.17 797.276 372.63 L 797.276 372.63 L 797.276 372.63 Q 798.644 363.09 799.148 359.634 L 799.148 359.634 L 795.332 359.634 L 796.34 352.362 L 800.156 352.362 L 801.596 341.706 L 810.596 341.706 L 808.652 352.362 L 814.124 352.362 L 813.116 359.634 L 807.716 359.634 L 807.716 359.634 Q 807.212 362.946 805.952 371.982 L 805.952 371.982 L 805.952 371.982 Q 804.692 381.018 804.692 381.45 L 804.692 381.45 L 804.692 381.45 Q 804.692 383.826 807.284 383.826 L 807.284 383.826 L 809.66 383.826 L 808.796 390.234 L 808.796 390.234 Q 807.86 390.594 806.312 390.846 L 806.312 390.846 L 806.312 390.846 Q 804.764 391.098 803.54 391.098 L 803.54 391.098 L 803.54 391.098 Z  M 827.156 391.098 L 827.156 391.098 Q 820.964 391.098 817.94 387.822 L 817.94 387.822 L 817.94 387.822 Q 814.916 384.546 814.916 377.85 L 814.916 377.85 L 814.916 377.85 Q 814.916 366.69 818.696 359.094 L 818.696 359.094 L 818.696 359.094 Q 822.476 351.498 831.692 351.498 L 831.692 351.498 L 831.692 351.498 Q 843.428 351.498 843.428 364.386 L 843.428 364.386 L 843.428 364.386 Q 843.428 369.282 842.636 373.458 L 842.636 373.458 L 823.7 373.458 L 823.7 373.458 Q 823.556 374.97 823.556 376.77 L 823.556 376.77 L 823.556 376.77 Q 823.556 380.514 824.492 382.314 L 824.492 382.314 L 824.492 382.314 Q 825.428 384.114 827.516 384.114 L 827.516 384.114 L 827.516 384.114 Q 829.532 384.114 830.936 382.17 L 830.936 382.17 L 830.936 382.17 Q 832.34 380.226 832.988 377.13 L 832.988 377.13 L 841.844 377.13 L 841.844 377.13 Q 838.676 391.098 827.156 391.098 L 827.156 391.098 L 827.156 391.098 Z  M 824.636 367.194 L 834.572 367.194 L 834.572 367.194 Q 834.716 365.106 834.716 364.386 L 834.716 364.386 L 834.716 364.386 Q 834.716 361.434 833.888 359.958 L 833.888 359.958 L 833.888 359.958 Q 833.06 358.482 831.188 358.482 L 831.188 358.482 L 831.188 358.482 Q 828.668 358.482 827.084 360.93 L 827.084 360.93 L 827.084 360.93 Q 825.5 363.378 824.636 367.194 L 824.636 367.194 L 824.636 367.194 Z  M 858.62 403.338 L 858.62 403.338 Q 852.428 403.338 849.152 400.062 L 849.152 400.062 L 849.152 400.062 Q 845.876 396.786 845.876 391.962 L 845.876 391.962 L 854.66 391.962 L 854.66 391.962 Q 854.66 396.066 859.196 396.066 L 859.196 396.066 L 859.196 396.066 Q 865.244 396.066 866.396 388.434 L 866.396 388.434 L 866.972 384.546 L 866.972 384.546 Q 865.388 386.634 863.12 387.93 L 863.12 387.93 L 863.12 387.93 Q 860.852 389.226 858.404 389.226 L 858.404 389.226 L 858.404 389.226 Q 853.796 389.226 850.88 386.094 L 850.88 386.094 L 850.88 386.094 Q 847.964 382.962 847.964 376.77 L 847.964 376.77 L 847.964 376.77 Q 847.964 371.298 849.368 365.466 L 849.368 365.466 L 849.368 365.466 Q 850.772 359.634 854.084 355.566 L 854.084 355.566 L 854.084 355.566 Q 857.396 351.498 862.724 351.498 L 862.724 351.498 L 862.724 351.498 Q 865.748 351.498 868.016 352.974 L 868.016 352.974 L 868.016 352.974 Q 870.284 354.45 871.508 357.402 L 871.508 357.402 L 873.164 352.362 L 879.932 352.362 L 875.108 386.706 L 875.108 386.706 Q 873.884 395.418 869.816 399.378 L 869.816 399.378 L 869.816 399.378 Q 865.748 403.338 858.62 403.338 L 858.62 403.338 L 858.62 403.338 Z  M 861.428 381.81 L 861.428 381.81 Q 864.38 381.81 866.144 379.074 L 866.144 379.074 L 866.144 379.074 Q 867.908 376.338 868.628 372.666 L 868.628 372.666 L 868.628 372.666 Q 869.348 368.994 869.348 365.898 L 869.348 365.898 L 869.348 365.898 Q 869.348 359.346 864.668 359.346 L 864.668 359.346 L 864.668 359.346 Q 860.132 359.346 858.44 364.818 L 858.44 364.818 L 858.44 364.818 Q 856.748 370.29 856.748 376.122 L 856.748 376.122 L 856.748 376.122 Q 856.748 378.93 857.936 380.37 L 857.936 380.37 L 857.936 380.37 Q 859.124 381.81 861.428 381.81 L 861.428 381.81 L 861.428 381.81 Z  M 893.252 391.098 L 893.252 391.098 Q 888.356 391.098 885.692 387.714 L 885.692 387.714 L 885.692 387.714 Q 883.028 384.33 883.028 377.706 L 883.028 377.706 L 883.028 377.706 Q 883.028 368.994 885.044 363.09 L 885.044 363.09 L 885.044 363.09 Q 887.06 357.186 890.336 354.342 L 890.336 354.342 L 890.336 354.342 Q 893.612 351.498 897.356 351.498 L 897.356 351.498 L 897.356 351.498 Q 903.116 351.498 905.276 356.898 L 905.276 356.898 L 906.716 352.362 L 913.412 352.362 L 913.412 352.362 Q 912.692 356.826 910.82 369.066 L 910.82 369.066 L 910.82 369.066 Q 908.948 381.306 908.948 381.81 L 908.948 381.81 L 908.948 381.81 Q 908.948 383.826 910.676 383.826 L 910.676 383.826 L 911.972 383.826 L 911.108 389.946 L 911.108 389.946 Q 909.164 391.098 906.86 391.098 L 906.86 391.098 L 906.86 391.098 Q 904.484 391.098 902.972 389.766 L 902.972 389.766 L 902.972 389.766 Q 901.46 388.434 900.884 386.058 L 900.884 386.058 L 900.884 386.058 Q 899.588 388.578 897.464 389.838 L 897.464 389.838 L 897.464 389.838 Q 895.34 391.098 893.252 391.098 L 893.252 391.098 L 893.252 391.098 Z  M 895.484 383.682 L 895.484 383.682 Q 898.22 383.682 899.876 380.622 L 899.876 380.622 L 899.876 380.622 Q 901.532 377.562 902.18 373.458 L 902.18 373.458 L 902.18 373.458 Q 902.828 369.354 902.828 365.898 L 902.828 365.898 L 902.828 365.898 Q 902.828 362.37 901.964 360.642 L 901.964 360.642 L 901.964 360.642 Q 901.1 358.914 899.012 358.914 L 899.012 358.914 L 899.012 358.914 Q 896.276 358.914 894.62 362.154 L 894.62 362.154 L 894.62 362.154 Q 892.964 365.394 892.28 369.534 L 892.28 369.534 L 892.28 369.534 Q 891.596 373.674 891.596 376.554 L 891.596 376.554 L 891.596 376.554 Q 891.596 383.682 895.484 383.682 L 895.484 383.682 L 895.484 383.682 Z  M 561.116 390.234 L 568.028 340.842 L 577.172 340.842 L 570.26 390.234 L 561.116 390.234 L 561.116 390.234 Z  M 591.5 391.098 L 591.5 391.098 Q 585.164 391.098 581.492 388.506 L 581.492 388.506 L 581.492 388.506 Q 577.82 385.914 577.82 381.306 L 577.82 381.306 L 577.82 381.306 Q 577.82 380.298 578 379.254 L 578 379.254 L 578 379.254 Q 578.18 378.21 578.252 377.922 L 578.252 377.922 L 587.036 377.922 L 587.036 377.922 Q 586.964 378.138 586.856 378.678 L 586.856 378.678 L 586.856 378.678 Q 586.748 379.218 586.748 379.722 L 586.748 379.722 L 586.748 379.722 Q 586.748 382.098 588.224 383.07 L 588.224 383.07 L 588.224 383.07 Q 589.7 384.042 592.076 384.042 L 592.076 384.042 L 592.076 384.042 Q 593.876 384.042 595.316 383.07 L 595.316 383.07 L 595.316 383.07 Q 596.756 382.098 596.756 380.154 L 596.756 380.154 L 596.756 380.154 Q 596.756 377.994 595.28 376.878 L 595.28 376.878 L 595.28 376.878 Q 593.804 375.762 590.636 374.466 L 590.636 374.466 L 590.636 374.466 Q 587.612 373.242 585.776 372.162 L 585.776 372.162 L 585.776 372.162 Q 583.94 371.082 582.608 368.922 L 582.608 368.922 L 582.608 368.922 Q 581.276 366.762 581.276 363.306 L 581.276 363.306 L 581.276 363.306 Q 581.276 357.69 585.272 354.594 L 585.272 354.594 L 585.272 354.594 Q 589.268 351.498 595.244 351.498 L 595.244 351.498 L 595.244 351.498 Q 601.724 351.498 604.532 354.846 L 604.532 354.846 L 604.532 354.846 Q 607.34 358.194 607.34 363.45 L 607.34 363.45 L 598.628 363.45 L 598.628 363.45 Q 598.628 361.074 597.764 359.814 L 597.764 359.814 L 597.764 359.814 Q 596.9 358.554 594.38 358.554 L 594.38 358.554 L 594.38 358.554 Q 592.652 358.554 591.428 359.598 L 591.428 359.598 L 591.428 359.598 Q 590.204 360.642 590.204 362.298 L 590.204 362.298 L 590.204 362.298 Q 590.204 364.314 591.716 365.358 L 591.716 365.358 L 591.716 365.358 Q 593.228 366.402 596.324 367.482 L 596.324 367.482 L 596.324 367.482 Q 599.276 368.562 601.22 369.642 L 601.22 369.642 L 601.22 369.642 Q 603.164 370.722 604.532 372.846 L 604.532 372.846 L 604.532 372.846 Q 605.9 374.97 605.9 378.354 L 605.9 378.354 L 605.9 378.354 Q 605.9 384.834 601.796 387.966 L 601.796 387.966 L 601.796 387.966 Q 597.692 391.098 591.5 391.098 L 591.5 391.098 L 591.5 391.098 Z  M 620.876 391.098 L 620.876 391.098 Q 615.98 391.098 613.316 387.714 L 613.316 387.714 L 613.316 387.714 Q 610.652 384.33 610.652 377.706 L 610.652 377.706 L 610.652 377.706 Q 610.652 368.994 612.668 363.09 L 612.668 363.09 L 612.668 363.09 Q 614.684 357.186 617.96 354.342 L 617.96 354.342 L 617.96 354.342 Q 621.236 351.498 624.98 351.498 L 624.98 351.498 L 624.98 351.498 Q 630.74 351.498 632.9 356.898 L 632.9 356.898 L 634.34 352.362 L 641.036 352.362 L 641.036 352.362 Q 640.316 356.826 638.444 369.066 L 638.444 369.066 L 638.444 369.066 Q 636.572 381.306 636.572 381.81 L 636.572 381.81 L 636.572 381.81 Q 636.572 383.826 638.3 383.826 L 638.3 383.826 L 639.596 383.826 L 638.732 389.946 L 638.732 389.946 Q 636.788 391.098 634.484 391.098 L 634.484 391.098 L 634.484 391.098 Q 632.108 391.098 630.596 389.766 L 630.596 389.766 L 630.596 389.766 Q 629.084 388.434 628.508 386.058 L 628.508 386.058 L 628.508 386.058 Q 627.212 388.578 625.088 389.838 L 625.088 389.838 L 625.088 389.838 Q 622.964 391.098 620.876 391.098 L 620.876 391.098 L 620.876 391.098 Z  M 623.108 383.682 L 623.108 383.682 Q 625.844 383.682 627.5 380.622 L 627.5 380.622 L 627.5 380.622 Q 629.156 377.562 629.804 373.458 L 629.804 373.458 L 629.804 373.458 Q 630.452 369.354 630.452 365.898 L 630.452 365.898 L 630.452 365.898 Q 630.452 362.37 629.588 360.642 L 629.588 360.642 L 629.588 360.642 Q 628.724 358.914 626.636 358.914 L 626.636 358.914 L 626.636 358.914 Q 623.9 358.914 622.244 362.154 L 622.244 362.154 L 622.244 362.154 Q 620.588 365.394 619.904 369.534 L 619.904 369.534 L 619.904 369.534 Q 619.22 373.674 619.22 376.554 L 619.22 376.554 L 619.22 376.554 Q 619.22 383.682 623.108 383.682 L 623.108 383.682 L 623.108 383.682 Z  M 653.708 391.098 L 653.708 391.098 Q 648.812 391.098 646.148 387.714 L 646.148 387.714 L 646.148 387.714 Q 643.484 384.33 643.484 377.706 L 643.484 377.706 L 643.484 377.706 Q 643.484 368.994 645.5 363.09 L 645.5 363.09 L 645.5 363.09 Q 647.516 357.186 650.792 354.342 L 650.792 354.342 L 650.792 354.342 Q 654.068 351.498 657.812 351.498 L 657.812 351.498 L 657.812 351.498 Q 663.572 351.498 665.732 356.898 L 665.732 356.898 L 667.172 352.362 L 673.868 352.362 L 673.868 352.362 Q 673.148 356.826 671.276 369.066 L 671.276 369.066 L 671.276 369.066 Q 669.404 381.306 669.404 381.81 L 669.404 381.81 L 669.404 381.81 Q 669.404 383.826 671.132 383.826 L 671.132 383.826 L 672.428 383.826 L 671.564 389.946 L 671.564 389.946 Q 669.62 391.098 667.316 391.098 L 667.316 391.098 L 667.316 391.098 Q 664.94 391.098 663.428 389.766 L 663.428 389.766 L 663.428 389.766 Q 661.916 388.434 661.34 386.058 L 661.34 386.058 L 661.34 386.058 Q 660.044 388.578 657.92 389.838 L 657.92 389.838 L 657.92 389.838 Q 655.796 391.098 653.708 391.098 L 653.708 391.098 L 653.708 391.098 Z  M 655.94 383.682 L 655.94 383.682 Q 658.676 383.682 660.332 380.622 L 660.332 380.622 L 660.332 380.622 Q 661.988 377.562 662.636 373.458 L 662.636 373.458 L 662.636 373.458 Q 663.284 369.354 663.284 365.898 L 663.284 365.898 L 663.284 365.898 Q 663.284 362.37 662.42 360.642 L 662.42 360.642 L 662.42 360.642 Q 661.556 358.914 659.468 358.914 L 659.468 358.914 L 659.468 358.914 Q 656.732 358.914 655.076 362.154 L 655.076 362.154 L 655.076 362.154 Q 653.42 365.394 652.736 369.534 L 652.736 369.534 L 652.736 369.534 Q 652.052 373.674 652.052 376.554 L 652.052 376.554 L 652.052 376.554 Q 652.052 383.682 655.94 383.682 L 655.94 383.682 L 655.94 383.682 Z  M 689.348 391.098 L 689.348 391.098 Q 683.3 391.098 680.312 387.822 L 680.312 387.822 L 680.312 387.822 Q 677.324 384.546 677.324 377.85 L 677.324 377.85 L 677.324 377.85 Q 677.324 366.834 680.996 359.166 L 680.996 359.166 L 680.996 359.166 Q 684.668 351.498 694.1 351.498 L 694.1 351.498 L 694.1 351.498 Q 700.22 351.498 703.028 354.918 L 703.028 354.918 L 703.028 354.918 Q 705.836 358.338 705.836 365.538 L 705.836 365.538 L 705.836 366.618 L 697.052 366.618 L 697.052 365.538 L 697.052 365.538 Q 697.052 362.082 696.26 360.426 L 696.26 360.426 L 696.26 360.426 Q 695.468 358.77 693.452 358.77 L 693.452 358.77 L 693.452 358.77 Q 690.644 358.77 689.024 362.262 L 689.024 362.262 L 689.024 362.262 Q 687.404 365.754 686.756 369.966 L 686.756 369.966 L 686.756 369.966 Q 686.108 374.178 686.108 376.482 L 686.108 376.482 L 686.108 376.482 Q 686.108 380.298 686.936 382.062 L 686.936 382.062 L 686.936 382.062 Q 687.764 383.826 689.996 383.826 L 689.996 383.826 L 689.996 383.826 Q 692.156 383.826 693.668 381.702 L 693.668 381.702 L 693.668 381.702 Q 695.18 379.578 695.9 376.194 L 695.9 376.194 L 704.468 376.194 L 704.468 376.194 Q 702.956 383.034 699.464 387.066 L 699.464 387.066 L 699.464 387.066 Q 695.972 391.098 689.348 391.098 L 689.348 391.098 L 689.348 391.098 Z  M 508.7 390.882 L 509.78 382.386 L 533.756 371.442 L 512.876 360.498 L 514.028 352.002 L 541.604 366.906 L 540.38 376.05 L 508.7 390.882 L 508.7 390.882 Z " fill-rule="evenodd" fill="rgb(0,0,0)"/><path d=" M 803.052734 472.134766 L 803.052734 477.613281 L 800.074219 477.613281 L 800.074219 471.236328 L 800.074219 471.236328 Q 800.074219 470.054688 799.678711 469.463867 L 799.678711 469.463867 L 799.678711 469.463867 Q 799.283203 468.873047 798.433594 468.873047 L 798.433594 468.873047 L 798.433594 468.873047 Q 797.291016 468.873047 796.773438 469.712891 L 796.773438 469.712891 L 796.773438 469.712891 Q 796.255859 470.552734 796.255859 472.476563 L 796.255859 472.476563 L 796.255859 477.613281 L 793.277344 477.613281 L 793.277344 466.695313 L 795.552734 466.695313 L 795.953125 468.091797 L 796.119141 468.091797 L 796.119141 468.091797 Q 796.558594 467.339844 797.388672 466.915039 L 797.388672 466.915039 L 797.388672 466.915039 Q 798.21875 466.490234 799.292969 466.490234 L 799.292969 466.490234 L 799.292969 466.490234 Q 801.744141 466.490234 802.613281 468.091797 L 802.613281 468.091797 L 802.876953 468.091797 L 802.876953 468.091797 Q 803.316406 467.330078 804.170898 466.910156 L 804.170898 466.910156 L 804.170898 466.910156 Q 805.025391 466.490234 806.099609 466.490234 L 806.099609 466.490234 L 806.099609 466.490234 Q 807.955078 466.490234 808.907227 467.442383 L 808.907227 467.442383 L 808.907227 467.442383 Q 809.859375 468.394531 809.859375 470.494141 L 809.859375 470.494141 L 809.859375 477.613281 L 806.871094 477.613281 L 806.871094 471.236328 L 806.871094 471.236328 Q 806.871094 470.054688 806.475586 469.463867 L 806.475586 469.463867 L 806.475586 469.463867 Q 806.080078 468.873047 805.230469 468.873047 L 805.230469 468.873047 L 805.230469 468.873047 Q 804.136719 468.873047 803.594727 469.654297 L 803.594727 469.654297 L 803.594727 469.654297 Q 803.052734 470.435547 803.052734 472.134766 L 803.052734 472.134766 L 803.052734 472.134766 Z  M 821.929688 477.613281 L 819.849609 477.613281 L 819.273438 476.128906 L 819.195313 476.128906 L 819.195313 476.128906 Q 818.443359 477.076172 817.647461 477.442383 L 817.647461 477.442383 L 817.647461 477.442383 Q 816.851563 477.808594 815.572266 477.808594 L 815.572266 477.808594 L 815.572266 477.808594 Q 814 477.808594 813.09668 476.910156 L 813.09668 476.910156 L 813.09668 476.910156 Q 812.193359 476.011719 812.193359 474.351563 L 812.193359 474.351563 L 812.193359 474.351563 Q 812.193359 472.613281 813.40918 471.788086 L 813.40918 471.788086 L 813.40918 471.788086 Q 814.625 470.962891 817.076172 470.875 L 817.076172 470.875 L 818.970703 470.816406 L 818.970703 470.337891 L 818.970703 470.337891 Q 818.970703 468.677734 817.271484 468.677734 L 817.271484 468.677734 L 817.271484 468.677734 Q 815.962891 468.677734 814.195313 469.46875 L 814.195313 469.46875 L 813.208984 467.457031 L 813.208984 467.457031 Q 815.09375 466.470703 817.388672 466.470703 L 817.388672 466.470703 L 817.388672 466.470703 Q 819.585938 466.470703 820.757813 467.427734 L 820.757813 467.427734 L 820.757813 467.427734 Q 821.929688 468.384766 821.929688 470.337891 L 821.929688 470.337891 L 821.929688 477.613281 L 821.929688 477.613281 Z  M 818.970703 473.453125 L 818.970703 472.554688 L 817.818359 472.59375 L 817.818359 472.59375 Q 816.519531 472.632813 815.884766 473.0625 L 815.884766 473.0625 L 815.884766 473.0625 Q 815.25 473.492188 815.25 474.371094 L 815.25 474.371094 L 815.25 474.371094 Q 815.25 475.630859 816.695313 475.630859 L 816.695313 475.630859 L 816.695313 475.630859 Q 817.730469 475.630859 818.350586 475.035156 L 818.350586 475.035156 L 818.350586 475.035156 Q 818.970703 474.439453 818.970703 473.453125 L 818.970703 473.453125 L 818.970703 473.453125 Z  M 829.595703 475.435547 L 829.595703 475.435547 L 829.595703 475.435547 Q 830.376953 475.435547 831.470703 475.09375 L 831.470703 475.09375 L 831.470703 477.310547 L 831.470703 477.310547 Q 830.357422 477.808594 828.736328 477.808594 L 828.736328 477.808594 L 828.736328 477.808594 Q 826.949219 477.808594 826.133789 476.905273 L 826.133789 476.905273 L 826.133789 476.905273 Q 825.318359 476.001953 825.318359 474.195313 L 825.318359 474.195313 L 825.318359 468.931641 L 823.892578 468.931641 L 823.892578 467.671875 L 825.533203 466.675781 L 826.392578 464.371094 L 828.296875 464.371094 L 828.296875 466.695313 L 831.353516 466.695313 L 831.353516 468.931641 L 828.296875 468.931641 L 828.296875 474.195313 L 828.296875 474.195313 Q 828.296875 474.830078 828.65332 475.132813 L 828.65332 475.132813 L 828.65332 475.132813 Q 829.009766 475.435547 829.595703 475.435547 Z  M 843.755859 470.494141 L 843.755859 477.613281 L 840.777344 477.613281 L 840.777344 471.236328 L 840.777344 471.236328 Q 840.777344 468.873047 839.019531 468.873047 L 839.019531 468.873047 L 839.019531 468.873047 Q 837.769531 468.873047 837.212891 469.722656 L 837.212891 469.722656 L 837.212891 469.722656 Q 836.65625 470.572266 836.65625 472.476563 L 836.65625 472.476563 L 836.65625 477.613281 L 833.677734 477.613281 L 833.677734 462.417969 L 836.65625 462.417969 L 836.65625 465.513672 L 836.65625 465.513672 Q 836.65625 465.875 836.587891 467.212891 L 836.587891 467.212891 L 836.519531 468.091797 L 836.675781 468.091797 L 836.675781 468.091797 Q 837.671875 466.490234 839.839844 466.490234 L 839.839844 466.490234 L 839.839844 466.490234 Q 841.763672 466.490234 842.759766 467.525391 L 842.759766 467.525391 L 842.759766 467.525391 Q 843.755859 468.560547 843.755859 470.494141 L 843.755859 470.494141 L 843.755859 470.494141 Z  M 846.402344 476.216797 L 846.402344 476.216797 L 846.402344 476.216797 Q 846.402344 475.396484 846.841797 474.976563 L 846.841797 474.976563 L 846.841797 474.976563 Q 847.28125 474.556641 848.121094 474.556641 L 848.121094 474.556641 L 848.121094 474.556641 Q 848.931641 474.556641 849.375977 474.986328 L 849.375977 474.986328 L 849.375977 474.986328 Q 849.820313 475.416016 849.820313 476.216797 L 849.820313 476.216797 L 849.820313 476.216797 Q 849.820313 476.988281 849.371094 477.432617 L 849.371094 477.432617 L 849.371094 477.432617 Q 848.921875 477.876953 848.121094 477.876953 L 848.121094 477.876953 L 848.121094 477.876953 Q 847.300781 477.876953 846.851563 477.442383 L 846.851563 477.442383 L 846.851563 477.442383 Q 846.402344 477.007813 846.402344 476.216797 Z  M 759.214844 477.613281 L 757.134766 477.613281 L 756.558594 476.128906 L 756.480469 476.128906 L 756.480469 476.128906 Q 755.728516 477.076172 754.932617 477.442383 L 754.932617 477.442383 L 754.932617 477.442383 Q 754.136719 477.808594 752.857422 477.808594 L 752.857422 477.808594 L 752.857422 477.808594 Q 751.285156 477.808594 750.381836 476.910156 L 750.381836 476.910156 L 750.381836 476.910156 Q 749.478516 476.011719 749.478516 474.351563 L 749.478516 474.351563 L 749.478516 474.351563 Q 749.478516 472.613281 750.694336 471.788086 L 750.694336 471.788086 L 750.694336 471.788086 Q 751.910156 470.962891 754.361328 470.875 L 754.361328 470.875 L 756.255859 470.816406 L 756.255859 470.337891 L 756.255859 470.337891 Q 756.255859 468.677734 754.556641 468.677734 L 754.556641 468.677734 L 754.556641 468.677734 Q 753.248047 468.677734 751.480469 469.46875 L 751.480469 469.46875 L 750.494141 467.457031 L 750.494141 467.457031 Q 752.378906 466.470703 754.673828 466.470703 L 754.673828 466.470703 L 754.673828 466.470703 Q 756.871094 466.470703 758.042969 467.427734 L 758.042969 467.427734 L 758.042969 467.427734 Q 759.214844 468.384766 759.214844 470.337891 L 759.214844 470.337891 L 759.214844 477.613281 L 759.214844 477.613281 Z  M 756.255859 473.453125 L 756.255859 472.554688 L 755.103516 472.59375 L 755.103516 472.59375 Q 753.804688 472.632813 753.169922 473.0625 L 753.169922 473.0625 L 753.169922 473.0625 Q 752.535156 473.492188 752.535156 474.371094 L 752.535156 474.371094 L 752.535156 474.371094 Q 752.535156 475.630859 753.980469 475.630859 L 753.980469 475.630859 L 753.980469 475.630859 Q 755.015625 475.630859 755.635742 475.035156 L 755.635742 475.035156 L 755.635742 475.035156 Q 756.255859 474.439453 756.255859 473.453125 L 756.255859 473.453125 L 756.255859 473.453125 Z  M 772.359375 470.494141 L 772.359375 477.613281 L 769.380859 477.613281 L 769.380859 471.236328 L 769.380859 471.236328 Q 769.380859 470.054688 768.960938 469.463867 L 768.960938 469.463867 L 768.960938 469.463867 Q 768.541016 468.873047 767.623047 468.873047 L 767.623047 468.873047 L 767.623047 468.873047 Q 766.373047 468.873047 765.816406 469.708008 L 765.816406 469.708008 L 765.816406 469.708008 Q 765.259766 470.542969 765.259766 472.476563 L 765.259766 472.476563 L 765.259766 477.613281 L 762.28125 477.613281 L 762.28125 466.695313 L 764.556641 466.695313 L 764.957031 468.091797 L 765.123047 468.091797 L 765.123047 468.091797 Q 765.621094 467.300781 766.495117 466.895508 L 766.495117 466.895508 L 766.495117 466.895508 Q 767.369141 466.490234 768.482422 466.490234 L 768.482422 466.490234 L 768.482422 466.490234 Q 770.386719 466.490234 771.373047 467.520508 L 771.373047 467.520508 L 771.373047 467.520508 Q 772.359375 468.550781 772.359375 470.494141 L 772.359375 470.494141 L 772.359375 470.494141 Z  M 778.882813 477.808594 L 778.882813 477.808594 L 778.882813 477.808594 Q 776.958984 477.808594 775.860352 476.314453 L 775.860352 476.314453 L 775.860352 476.314453 Q 774.761719 474.820313 774.761719 472.173828 L 774.761719 472.173828 L 774.761719 472.173828 Q 774.761719 469.488281 775.879883 467.989258 L 775.879883 467.989258 L 775.879883 467.989258 Q 776.998047 466.490234 778.960938 466.490234 L 778.960938 466.490234 L 778.960938 466.490234 Q 781.021484 466.490234 782.105469 468.091797 L 782.105469 468.091797 L 782.203125 468.091797 L 782.203125 468.091797 Q 781.978516 466.871094 781.978516 465.914063 L 781.978516 465.914063 L 781.978516 462.417969 L 784.966797 462.417969 L 784.966797 477.613281 L 782.681641 477.613281 L 782.105469 476.197266 L 781.978516 476.197266 L 781.978516 476.197266 Q 780.962891 477.808594 778.882813 477.808594 Z  M 779.927734 475.435547 L 779.927734 475.435547 L 779.927734 475.435547 Q 781.070313 475.435547 781.602539 474.771484 L 781.602539 474.771484 L 781.602539 474.771484 Q 782.134766 474.107422 782.183594 472.515625 L 782.183594 472.515625 L 782.183594 472.193359 L 782.183594 472.193359 Q 782.183594 470.435547 781.641602 469.673828 L 781.641602 469.673828 L 781.641602 469.673828 Q 781.099609 468.912109 779.878906 468.912109 L 779.878906 468.912109 L 779.878906 468.912109 Q 778.882813 468.912109 778.331055 469.756836 L 778.331055 469.756836 L 778.331055 469.756836 Q 777.779297 470.601563 777.779297 472.212891 L 777.779297 472.212891 L 777.779297 472.212891 Q 777.779297 473.824219 778.335938 474.629883 L 778.335938 474.629883 L 778.335938 474.629883 Q 778.892578 475.435547 779.927734 475.435547 Z  M 614.595703 477.808594 L 614.595703 477.808594 L 614.595703 477.808594 Q 612.671875 477.808594 611.578125 476.412109 L 611.578125 476.412109 L 611.421875 476.412109 L 611.421875 476.412109 Q 611.578125 477.779297 611.578125 477.994141 L 611.578125 477.994141 L 611.578125 482.417969 L 608.599609 482.417969 L 608.599609 466.695313 L 611.021484 466.695313 L 611.441406 468.111328 L 611.578125 468.111328 L 611.578125 468.111328 Q 612.623047 466.490234 614.673828 466.490234 L 614.673828 466.490234 L 614.673828 466.490234 Q 616.607422 466.490234 617.701172 467.984375 L 617.701172 467.984375 L 617.701172 467.984375 Q 618.794922 469.478516 618.794922 472.134766 L 618.794922 472.134766 L 618.794922 472.134766 Q 618.794922 473.882813 618.282227 475.171875 L 618.282227 475.171875 L 618.282227 475.171875 Q 617.769531 476.460938 616.822266 477.134766 L 616.822266 477.134766 L 616.822266 477.134766 Q 615.875 477.808594 614.595703 477.808594 Z  M 613.716797 468.873047 L 613.716797 468.873047 L 613.716797 468.873047 Q 612.613281 468.873047 612.105469 469.551758 L 612.105469 469.551758 L 612.105469 469.551758 Q 611.597656 470.230469 611.578125 471.792969 L 611.578125 471.792969 L 611.578125 472.115234 L 611.578125 472.115234 Q 611.578125 473.873047 612.100586 474.634766 L 612.100586 474.634766 L 612.100586 474.634766 Q 612.623047 475.396484 613.755859 475.396484 L 613.755859 475.396484 L 613.755859 475.396484 Q 615.757813 475.396484 615.757813 472.095703 L 615.757813 472.095703 L 615.757813 472.095703 Q 615.757813 470.484375 615.264648 469.678711 L 615.264648 469.678711 L 615.264648 469.678711 Q 614.771484 468.873047 613.716797 468.873047 Z  M 627.349609 466.490234 L 627.349609 466.490234 L 627.349609 466.490234 Q 627.955078 466.490234 628.355469 466.578125 L 628.355469 466.578125 L 628.130859 469.371094 L 628.130859 469.371094 Q 627.769531 469.273438 627.251953 469.273438 L 627.251953 469.273438 L 627.251953 469.273438 Q 625.826172 469.273438 625.030273 470.005859 L 625.030273 470.005859 L 625.030273 470.005859 Q 624.234375 470.738281 624.234375 472.056641 L 624.234375 472.056641 L 624.234375 477.613281 L 621.255859 477.613281 L 621.255859 466.695313 L 623.511719 466.695313 L 623.951172 468.53125 L 624.097656 468.53125 L 624.097656 468.53125 Q 624.605469 467.613281 625.469727 467.051758 L 625.469727 467.051758 L 625.469727 467.051758 Q 626.333984 466.490234 627.349609 466.490234 Z  M 632.710938 472.134766 L 632.710938 472.134766 L 632.710938 472.134766 Q 632.710938 473.755859 633.243164 474.585938 L 633.243164 474.585938 L 633.243164 474.585938 Q 633.775391 475.416016 634.976563 475.416016 L 634.976563 475.416016 L 634.976563 475.416016 Q 636.167969 475.416016 636.69043 474.59082 L 636.69043 474.59082 L 636.69043 474.59082 Q 637.212891 473.765625 637.212891 472.134766 L 637.212891 472.134766 L 637.212891 472.134766 Q 637.212891 470.513672 636.685547 469.703125 L 636.685547 469.703125 L 636.685547 469.703125 Q 636.158203 468.892578 634.957031 468.892578 L 634.957031 468.892578 L 634.957031 468.892578 Q 633.765625 468.892578 633.238281 469.698242 L 633.238281 469.698242 L 633.238281 469.698242 Q 632.710938 470.503906 632.710938 472.134766 Z  M 640.259766 472.134766 L 640.259766 472.134766 L 640.259766 472.134766 Q 640.259766 474.800781 638.853516 476.304688 L 638.853516 476.304688 L 638.853516 476.304688 Q 637.447266 477.808594 634.9375 477.808594 L 634.9375 477.808594 L 634.9375 477.808594 Q 633.365234 477.808594 632.164063 477.120117 L 632.164063 477.120117 L 632.164063 477.120117 Q 630.962891 476.431641 630.318359 475.142578 L 630.318359 475.142578 L 630.318359 475.142578 Q 629.673828 473.853516 629.673828 472.134766 L 629.673828 472.134766 L 629.673828 472.134766 Q 629.673828 469.458984 631.070313 467.974609 L 631.070313 467.974609 L 631.070313 467.974609 Q 632.466797 466.490234 634.996094 466.490234 L 634.996094 466.490234 L 634.996094 466.490234 Q 636.568359 466.490234 637.769531 467.173828 L 637.769531 467.173828 L 637.769531 467.173828 Q 638.970703 467.857422 639.615234 469.136719 L 639.615234 469.136719 L 639.615234 469.136719 Q 640.259766 470.416016 640.259766 472.134766 Z  M 648.414063 466.695313 L 652.222656 466.695313 L 652.222656 468.208984 L 650.513672 468.648438 L 650.513672 468.648438 Q 650.982422 469.380859 650.982422 470.289063 L 650.982422 470.289063 L 650.982422 470.289063 Q 650.982422 472.046875 649.756836 473.02832 L 649.756836 473.02832 L 649.756836 473.02832 Q 648.53125 474.009766 646.353516 474.009766 L 646.353516 474.009766 L 645.816406 473.980469 L 645.376953 473.931641 L 645.376953 473.931641 Q 644.917969 474.283203 644.917969 474.712891 L 644.917969 474.712891 L 644.917969 474.712891 Q 644.917969 475.357422 646.558594 475.357422 L 646.558594 475.357422 L 648.414063 475.357422 L 648.414063 475.357422 Q 650.210938 475.357422 651.15332 476.128906 L 651.15332 476.128906 L 651.15332 476.128906 Q 652.095703 476.900391 652.095703 478.394531 L 652.095703 478.394531 L 652.095703 478.394531 Q 652.095703 480.308594 650.499023 481.363281 L 650.499023 481.363281 L 650.499023 481.363281 Q 648.902344 482.417969 645.914063 482.417969 L 645.914063 482.417969 L 645.914063 482.417969 Q 643.628906 482.417969 642.422852 481.62207 L 642.422852 481.62207 L 642.422852 481.62207 Q 641.216797 480.826172 641.216797 479.390625 L 641.216797 479.390625 L 641.216797 479.390625 Q 641.216797 478.404297 641.832031 477.740234 L 641.832031 477.740234 L 641.832031 477.740234 Q 642.447266 477.076172 643.638672 476.792969 L 643.638672 476.792969 L 643.638672 476.792969 Q 643.179688 476.597656 642.837891 476.15332 L 642.837891 476.15332 L 642.837891 476.15332 Q 642.496094 475.708984 642.496094 475.210938 L 642.496094 475.210938 L 642.496094 475.210938 Q 642.496094 474.585938 642.857422 474.170898 L 642.857422 474.170898 L 642.857422 474.170898 Q 643.21875 473.755859 643.902344 473.355469 L 643.902344 473.355469 L 643.902344 473.355469 Q 643.042969 472.984375 642.540039 472.164063 L 642.540039 472.164063 L 642.540039 472.164063 Q 642.037109 471.34375 642.037109 470.230469 L 642.037109 470.230469 L 642.037109 470.230469 Q 642.037109 468.443359 643.199219 467.466797 L 643.199219 467.466797 L 643.199219 467.466797 Q 644.361328 466.490234 646.519531 466.490234 L 646.519531 466.490234 L 646.519531 466.490234 Q 646.978516 466.490234 647.608398 466.573242 L 647.608398 466.573242 L 647.608398 466.573242 Q 648.238281 466.65625 648.414063 466.695313 L 648.414063 466.695313 L 648.414063 466.695313 Z  M 643.794922 479.15625 L 643.794922 479.15625 L 643.794922 479.15625 Q 643.794922 479.771484 644.385742 480.123047 L 644.385742 480.123047 L 644.385742 480.123047 Q 644.976563 480.474609 646.041016 480.474609 L 646.041016 480.474609 L 646.041016 480.474609 Q 647.642578 480.474609 648.550781 480.035156 L 648.550781 480.035156 L 648.550781 480.035156 Q 649.458984 479.595703 649.458984 478.833984 L 649.458984 478.833984 L 649.458984 478.833984 Q 649.458984 478.21875 648.921875 477.984375 L 648.921875 477.984375 L 648.921875 477.984375 Q 648.384766 477.75 647.261719 477.75 L 647.261719 477.75 L 645.71875 477.75 L 645.71875 477.75 Q 644.898438 477.75 644.34668 478.135742 L 644.34668 478.135742 L 644.34668 478.135742 Q 643.794922 478.521484 643.794922 479.15625 Z  M 644.878906 470.269531 L 644.878906 470.269531 L 644.878906 470.269531 Q 644.878906 471.158203 645.28418 471.675781 L 645.28418 471.675781 L 645.28418 471.675781 Q 645.689453 472.193359 646.519531 472.193359 L 646.519531 472.193359 L 646.519531 472.193359 Q 647.359375 472.193359 647.75 471.675781 L 647.75 471.675781 L 647.75 471.675781 Q 648.140625 471.158203 648.140625 470.269531 L 648.140625 470.269531 L 648.140625 470.269531 Q 648.140625 468.296875 646.519531 468.296875 L 646.519531 468.296875 L 646.519531 468.296875 Q 644.878906 468.296875 644.878906 470.269531 Z  M 660.113281 466.490234 L 660.113281 466.490234 L 660.113281 466.490234 Q 660.71875 466.490234 661.119141 466.578125 L 661.119141 466.578125 L 660.894531 469.371094 L 660.894531 469.371094 Q 660.533203 469.273438 660.015625 469.273438 L 660.015625 469.273438 L 660.015625 469.273438 Q 658.589844 469.273438 657.793945 470.005859 L 657.793945 470.005859 L 657.793945 470.005859 Q 656.998047 470.738281 656.998047 472.056641 L 656.998047 472.056641 L 656.998047 477.613281 L 654.019531 477.613281 L 654.019531 466.695313 L 656.275391 466.695313 L 656.714844 468.53125 L 656.861328 468.53125 L 656.861328 468.53125 Q 657.369141 467.613281 658.233398 467.051758 L 658.233398 467.051758 L 658.233398 467.051758 Q 659.097656 466.490234 660.113281 466.490234 Z  M 672.115234 477.613281 L 670.035156 477.613281 L 669.458984 476.128906 L 669.380859 476.128906 L 669.380859 476.128906 Q 668.628906 477.076172 667.833008 477.442383 L 667.833008 477.442383 L 667.833008 477.442383 Q 667.037109 477.808594 665.757813 477.808594 L 665.757813 477.808594 L 665.757813 477.808594 Q 664.185547 477.808594 663.282227 476.910156 L 663.282227 476.910156 L 663.282227 476.910156 Q 662.378906 476.011719 662.378906 474.351563 L 662.378906 474.351563 L 662.378906 474.351563 Q 662.378906 472.613281 663.594727 471.788086 L 663.594727 471.788086 L 663.594727 471.788086 Q 664.810547 470.962891 667.261719 470.875 L 667.261719 470.875 L 669.15625 470.816406 L 669.15625 470.337891 L 669.15625 470.337891 Q 669.15625 468.677734 667.457031 468.677734 L 667.457031 468.677734 L 667.457031 468.677734 Q 666.148438 468.677734 664.380859 469.46875 L 664.380859 469.46875 L 663.394531 467.457031 L 663.394531 467.457031 Q 665.279297 466.470703 667.574219 466.470703 L 667.574219 466.470703 L 667.574219 466.470703 Q 669.771484 466.470703 670.943359 467.427734 L 670.943359 467.427734 L 670.943359 467.427734 Q 672.115234 468.384766 672.115234 470.337891 L 672.115234 470.337891 L 672.115234 477.613281 L 672.115234 477.613281 Z  M 669.15625 473.453125 L 669.15625 472.554688 L 668.003906 472.59375 L 668.003906 472.59375 Q 666.705078 472.632813 666.070313 473.0625 L 666.070313 473.0625 L 666.070313 473.0625 Q 665.435547 473.492188 665.435547 474.371094 L 665.435547 474.371094 L 665.435547 474.371094 Q 665.435547 475.630859 666.880859 475.630859 L 666.880859 475.630859 L 666.880859 475.630859 Q 667.916016 475.630859 668.536133 475.035156 L 668.536133 475.035156 L 668.536133 475.035156 Q 669.15625 474.439453 669.15625 473.453125 L 669.15625 473.453125 L 669.15625 473.453125 Z  M 684.957031 472.134766 L 684.957031 477.613281 L 681.978516 477.613281 L 681.978516 471.236328 L 681.978516 471.236328 Q 681.978516 470.054688 681.583008 469.463867 L 681.583008 469.463867 L 681.583008 469.463867 Q 681.1875 468.873047 680.337891 468.873047 L 680.337891 468.873047 L 680.337891 468.873047 Q 679.195313 468.873047 678.677734 469.712891 L 678.677734 469.712891 L 678.677734 469.712891 Q 678.160156 470.552734 678.160156 472.476563 L 678.160156 472.476563 L 678.160156 477.613281 L 675.181641 477.613281 L 675.181641 466.695313 L 677.457031 466.695313 L 677.857422 468.091797 L 678.023438 468.091797 L 678.023438 468.091797 Q 678.462891 467.339844 679.292969 466.915039 L 679.292969 466.915039 L 679.292969 466.915039 Q 680.123047 466.490234 681.197266 466.490234 L 681.197266 466.490234 L 681.197266 466.490234 Q 683.648438 466.490234 684.517578 468.091797 L 684.517578 468.091797 L 684.78125 468.091797 L 684.78125 468.091797 Q 685.220703 467.330078 686.075195 466.910156 L 686.075195 466.910156 L 686.075195 466.910156 Q 686.929688 466.490234 688.003906 466.490234 L 688.003906 466.490234 L 688.003906 466.490234 Q 689.859375 466.490234 690.811523 467.442383 L 690.811523 467.442383 L 690.811523 467.442383 Q 691.763672 468.394531 691.763672 470.494141 L 691.763672 470.494141 L 691.763672 477.613281 L 688.775391 477.613281 L 688.775391 471.236328 L 688.775391 471.236328 Q 688.775391 470.054688 688.379883 469.463867 L 688.379883 469.463867 L 688.379883 469.463867 Q 687.984375 468.873047 687.134766 468.873047 L 687.134766 468.873047 L 687.134766 468.873047 Q 686.041016 468.873047 685.499023 469.654297 L 685.499023 469.654297 L 685.499023 469.654297 Q 684.957031 470.435547 684.957031 472.134766 L 684.957031 472.134766 L 684.957031 472.134766 Z  M 704.595703 472.134766 L 704.595703 477.613281 L 701.617188 477.613281 L 701.617188 471.236328 L 701.617188 471.236328 Q 701.617188 470.054688 701.22168 469.463867 L 701.22168 469.463867 L 701.22168 469.463867 Q 700.826172 468.873047 699.976563 468.873047 L 699.976563 468.873047 L 699.976563 468.873047 Q 698.833984 468.873047 698.316406 469.712891 L 698.316406 469.712891 L 698.316406 469.712891 Q 697.798828 470.552734 697.798828 472.476563 L 697.798828 472.476563 L 697.798828 477.613281 L 694.820313 477.613281 L 694.820313 466.695313 L 697.095703 466.695313 L 697.496094 468.091797 L 697.662109 468.091797 L 697.662109 468.091797 Q 698.101563 467.339844 698.931641 466.915039 L 698.931641 466.915039 L 698.931641 466.915039 Q 699.761719 466.490234 700.835938 466.490234 L 700.835938 466.490234 L 700.835938 466.490234 Q 703.287109 466.490234 704.15625 468.091797 L 704.15625 468.091797 L 704.419922 468.091797 L 704.419922 468.091797 Q 704.859375 467.330078 705.713867 466.910156 L 705.713867 466.910156 L 705.713867 466.910156 Q 706.568359 466.490234 707.642578 466.490234 L 707.642578 466.490234 L 707.642578 466.490234 Q 709.498047 466.490234 710.450195 467.442383 L 710.450195 467.442383 L 710.450195 467.442383 Q 711.402344 468.394531 711.402344 470.494141 L 711.402344 470.494141 L 711.402344 477.613281 L 708.414063 477.613281 L 708.414063 471.236328 L 708.414063 471.236328 Q 708.414063 470.054688 708.018555 469.463867 L 708.018555 469.463867 L 708.018555 469.463867 Q 707.623047 468.873047 706.773438 468.873047 L 706.773438 468.873047 L 706.773438 468.873047 Q 705.679688 468.873047 705.137695 469.654297 L 705.137695 469.654297 L 705.137695 469.654297 Q 704.595703 470.435547 704.595703 472.134766 L 704.595703 472.134766 L 704.595703 472.134766 Z  M 714.332031 463.873047 L 714.332031 463.873047 L 714.332031 463.873047 Q 714.332031 462.417969 715.953125 462.417969 L 715.953125 462.417969 L 715.953125 462.417969 Q 717.574219 462.417969 717.574219 463.873047 L 717.574219 463.873047 L 717.574219 463.873047 Q 717.574219 464.566406 717.168945 464.952148 L 717.168945 464.952148 L 717.168945 464.952148 Q 716.763672 465.337891 715.953125 465.337891 L 715.953125 465.337891 L 715.953125 465.337891 Q 714.332031 465.337891 714.332031 463.873047 Z  M 717.4375 466.695313 L 717.4375 477.613281 L 714.458984 477.613281 L 714.458984 466.695313 L 717.4375 466.695313 L 717.4375 466.695313 Z  M 730.640625 470.494141 L 730.640625 477.613281 L 727.662109 477.613281 L 727.662109 471.236328 L 727.662109 471.236328 Q 727.662109 470.054688 727.242188 469.463867 L 727.242188 469.463867 L 727.242188 469.463867 Q 726.822266 468.873047 725.904297 468.873047 L 725.904297 468.873047 L 725.904297 468.873047 Q 724.654297 468.873047 724.097656 469.708008 L 724.097656 469.708008 L 724.097656 469.708008 Q 723.541016 470.542969 723.541016 472.476563 L 723.541016 472.476563 L 723.541016 477.613281 L 720.5625 477.613281 L 720.5625 466.695313 L 722.837891 466.695313 L 723.238281 468.091797 L 723.404297 468.091797 L 723.404297 468.091797 Q 723.902344 467.300781 724.776367 466.895508 L 724.776367 466.895508 L 724.776367 466.895508 Q 725.650391 466.490234 726.763672 466.490234 L 726.763672 466.490234 L 726.763672 466.490234 Q 728.667969 466.490234 729.654297 467.520508 L 729.654297 467.520508 L 729.654297 467.520508 Q 730.640625 468.550781 730.640625 470.494141 L 730.640625 470.494141 L 730.640625 470.494141 Z  M 739.400391 466.695313 L 743.208984 466.695313 L 743.208984 468.208984 L 741.5 468.648438 L 741.5 468.648438 Q 741.96875 469.380859 741.96875 470.289063 L 741.96875 470.289063 L 741.96875 470.289063 Q 741.96875 472.046875 740.743164 473.02832 L 740.743164 473.02832 L 740.743164 473.02832 Q 739.517578 474.009766 737.339844 474.009766 L 737.339844 474.009766 L 736.802734 473.980469 L 736.363281 473.931641 L 736.363281 473.931641 Q 735.904297 474.283203 735.904297 474.712891 L 735.904297 474.712891 L 735.904297 474.712891 Q 735.904297 475.357422 737.544922 475.357422 L 737.544922 475.357422 L 739.400391 475.357422 L 739.400391 475.357422 Q 741.197266 475.357422 742.139648 476.128906 L 742.139648 476.128906 L 742.139648 476.128906 Q 743.082031 476.900391 743.082031 478.394531 L 743.082031 478.394531 L 743.082031 478.394531 Q 743.082031 480.308594 741.485352 481.363281 L 741.485352 481.363281 L 741.485352 481.363281 Q 739.888672 482.417969 736.900391 482.417969 L 736.900391 482.417969 L 736.900391 482.417969 Q 734.615234 482.417969 733.40918 481.62207 L 733.40918 481.62207 L 733.40918 481.62207 Q 732.203125 480.826172 732.203125 479.390625 L 732.203125 479.390625 L 732.203125 479.390625 Q 732.203125 478.404297 732.818359 477.740234 L 732.818359 477.740234 L 732.818359 477.740234 Q 733.433594 477.076172 734.625 476.792969 L 734.625 476.792969 L 734.625 476.792969 Q 734.166016 476.597656 733.824219 476.15332 L 733.824219 476.15332 L 733.824219 476.15332 Q 733.482422 475.708984 733.482422 475.210938 L 733.482422 475.210938 L 733.482422 475.210938 Q 733.482422 474.585938 733.84375 474.170898 L 733.84375 474.170898 L 733.84375 474.170898 Q 734.205078 473.755859 734.888672 473.355469 L 734.888672 473.355469 L 734.888672 473.355469 Q 734.029297 472.984375 733.526367 472.164063 L 733.526367 472.164063 L 733.526367 472.164063 Q 733.023438 471.34375 733.023438 470.230469 L 733.023438 470.230469 L 733.023438 470.230469 Q 733.023438 468.443359 734.185547 467.466797 L 734.185547 467.466797 L 734.185547 467.466797 Q 735.347656 466.490234 737.505859 466.490234 L 737.505859 466.490234 L 737.505859 466.490234 Q 737.964844 466.490234 738.594727 466.573242 L 738.594727 466.573242 L 738.594727 466.573242 Q 739.224609 466.65625 739.400391 466.695313 L 739.400391 466.695313 L 739.400391 466.695313 Z  M 734.78125 479.15625 L 734.78125 479.15625 L 734.78125 479.15625 Q 734.78125 479.771484 735.37207 480.123047 L 735.37207 480.123047 L 735.37207 480.123047 Q 735.962891 480.474609 737.027344 480.474609 L 737.027344 480.474609 L 737.027344 480.474609 Q 738.628906 480.474609 739.537109 480.035156 L 739.537109 480.035156 L 739.537109 480.035156 Q 740.445313 479.595703 740.445313 478.833984 L 740.445313 478.833984 L 740.445313 478.833984 Q 740.445313 478.21875 739.908203 477.984375 L 739.908203 477.984375 L 739.908203 477.984375 Q 739.371094 477.75 738.248047 477.75 L 738.248047 477.75 L 736.705078 477.75 L 736.705078 477.75 Q 735.884766 477.75 735.333008 478.135742 L 735.333008 478.135742 L 735.333008 478.135742 Q 734.78125 478.521484 734.78125 479.15625 Z  M 735.865234 470.269531 L 735.865234 470.269531 L 735.865234 470.269531 Q 735.865234 471.158203 736.270508 471.675781 L 736.270508 471.675781 L 736.270508 471.675781 Q 736.675781 472.193359 737.505859 472.193359 L 737.505859 472.193359 L 737.505859 472.193359 Q 738.345703 472.193359 738.736328 471.675781 L 738.736328 471.675781 L 738.736328 471.675781 Q 739.126953 471.158203 739.126953 470.269531 L 739.126953 470.269531 L 739.126953 470.269531 Q 739.126953 468.296875 737.505859 468.296875 L 737.505859 468.296875 L 737.505859 468.296875 Q 735.865234 468.296875 735.865234 470.269531 Z  M 803.345703 435.181641 L 803.345703 450.376953 L 800.367188 450.376953 L 800.367188 435.181641 L 803.345703 435.181641 L 803.345703 435.181641 Z  M 806.34375 436.636719 L 806.34375 436.636719 L 806.34375 436.636719 Q 806.34375 435.181641 807.964844 435.181641 L 807.964844 435.181641 L 807.964844 435.181641 Q 809.585938 435.181641 809.585938 436.636719 L 809.585938 436.636719 L 809.585938 436.636719 Q 809.585938 437.330078 809.180664 437.71582 L 809.180664 437.71582 L 809.180664 437.71582 Q 808.775391 438.101563 807.964844 438.101563 L 807.964844 438.101563 L 807.964844 438.101563 Q 806.34375 438.101563 806.34375 436.636719 Z  M 809.449219 439.458984 L 809.449219 450.376953 L 806.470703 450.376953 L 806.470703 439.458984 L 809.449219 439.458984 L 809.449219 439.458984 Z  M 815.396484 444.439453 L 815.435547 444.439453 L 816.734375 442.779297 L 819.791016 439.458984 L 823.150391 439.458984 L 818.814453 444.195313 L 823.414063 450.376953 L 819.976563 450.376953 L 816.832031 445.953125 L 815.552734 446.978516 L 815.552734 450.376953 L 812.574219 450.376953 L 812.574219 435.181641 L 815.552734 435.181641 L 815.552734 441.958984 L 815.396484 444.439453 L 815.396484 444.439453 Z  M 829.498047 441.373047 L 829.498047 441.373047 L 829.498047 441.373047 Q 828.550781 441.373047 828.013672 441.973633 L 828.013672 441.973633 L 828.013672 441.973633 Q 827.476563 442.574219 827.398438 443.677734 L 827.398438 443.677734 L 831.578125 443.677734 L 831.578125 443.677734 Q 831.558594 442.574219 831.001953 441.973633 L 831.001953 441.973633 L 831.001953 441.973633 Q 830.445313 441.373047 829.498047 441.373047 Z  M 829.917969 450.572266 L 829.917969 450.572266 L 829.917969 450.572266 Q 827.28125 450.572266 825.796875 449.117188 L 825.796875 449.117188 L 825.796875 449.117188 Q 824.3125 447.662109 824.3125 444.996094 L 824.3125 444.996094 L 824.3125 444.996094 Q 824.3125 442.251953 825.68457 440.75293 L 825.68457 440.75293 L 825.68457 440.75293 Q 827.056641 439.253906 829.478516 439.253906 L 829.478516 439.253906 L 829.478516 439.253906 Q 831.792969 439.253906 833.082031 440.572266 L 833.082031 440.572266 L 833.082031 440.572266 Q 834.371094 441.890625 834.371094 444.214844 L 834.371094 444.214844 L 834.371094 445.660156 L 827.330078 445.660156 L 827.330078 445.660156 Q 827.378906 446.929688 828.082031 447.642578 L 828.082031 447.642578 L 828.082031 447.642578 Q 828.785156 448.355469 830.054688 448.355469 L 830.054688 448.355469 L 830.054688 448.355469 Q 831.041016 448.355469 831.919922 448.150391 L 831.919922 448.150391 L 831.919922 448.150391 Q 832.798828 447.945313 833.755859 447.496094 L 833.755859 447.496094 L 833.755859 449.800781 L 833.755859 449.800781 Q 832.974609 450.191406 832.085938 450.381836 L 832.085938 450.381836 L 832.085938 450.381836 Q 831.197266 450.572266 829.917969 450.572266 Z  M 844.410156 447.134766 L 844.410156 447.134766 L 844.410156 447.134766 Q 844.410156 448.814453 843.243164 449.693359 L 843.243164 449.693359 L 843.243164 449.693359 Q 842.076172 450.572266 839.751953 450.572266 L 839.751953 450.572266 L 839.751953 450.572266 Q 838.560547 450.572266 837.720703 450.411133 L 837.720703 450.411133 L 837.720703 450.411133 Q 836.880859 450.25 836.148438 449.9375 L 836.148438 449.9375 L 836.148438 447.476563 L 836.148438 447.476563 Q 836.978516 447.867188 838.018555 448.130859 L 838.018555 448.130859 L 838.018555 448.130859 Q 839.058594 448.394531 839.849609 448.394531 L 839.849609 448.394531 L 839.849609 448.394531 Q 841.470703 448.394531 841.470703 447.457031 L 841.470703 447.457031 L 841.470703 447.457031 Q 841.470703 447.105469 841.255859 446.885742 L 841.255859 446.885742 L 841.255859 446.885742 Q 841.041016 446.666016 840.513672 446.387695 L 840.513672 446.387695 L 840.513672 446.387695 Q 839.986328 446.109375 839.107422 445.738281 L 839.107422 445.738281 L 839.107422 445.738281 Q 837.847656 445.210938 837.256836 444.761719 L 837.256836 444.761719 L 837.256836 444.761719 Q 836.666016 444.3125 836.397461 443.731445 L 836.397461 443.731445 L 836.397461 443.731445 Q 836.128906 443.150391 836.128906 442.300781 L 836.128906 442.300781 L 836.128906 442.300781 Q 836.128906 440.845703 837.256836 440.049805 L 837.256836 440.049805 L 837.256836 440.049805 Q 838.384766 439.253906 840.455078 439.253906 L 840.455078 439.253906 L 840.455078 439.253906 Q 842.427734 439.253906 844.292969 440.113281 L 844.292969 440.113281 L 843.394531 442.261719 L 843.394531 442.261719 Q 842.574219 441.910156 841.861328 441.685547 L 841.861328 441.685547 L 841.861328 441.685547 Q 841.148438 441.460938 840.40625 441.460938 L 840.40625 441.460938 L 840.40625 441.460938 Q 839.087891 441.460938 839.087891 442.173828 L 839.087891 442.173828 L 839.087891 442.173828 Q 839.087891 442.574219 839.512695 442.867188 L 839.512695 442.867188 L 839.512695 442.867188 Q 839.9375 443.160156 841.373047 443.736328 L 841.373047 443.736328 L 841.373047 443.736328 Q 842.652344 444.253906 843.248047 444.703125 L 843.248047 444.703125 L 843.248047 444.703125 Q 843.84375 445.152344 844.126953 445.738281 L 844.126953 445.738281 L 844.126953 445.738281 Q 844.410156 446.324219 844.410156 447.134766 Z  M 764.742188 450.376953 L 761.5 450.376953 L 760.660156 446.558594 L 759.527344 441.734375 L 759.458984 441.734375 L 757.466797 450.376953 L 754.263672 450.376953 L 751.158203 439.458984 L 754.126953 439.458984 L 755.386719 444.292969 L 755.386719 444.292969 Q 755.689453 445.591797 756.001953 447.876953 L 756.001953 447.876953 L 756.060547 447.876953 L 756.060547 447.876953 Q 756.099609 447.134766 756.402344 445.523438 L 756.402344 445.523438 L 756.558594 444.693359 L 757.90625 439.458984 L 761.1875 439.458984 L 762.466797 444.693359 L 762.466797 444.693359 Q 762.505859 444.908203 762.588867 445.328125 L 762.588867 445.328125 L 762.588867 445.328125 Q 762.671875 445.748047 762.75 446.22168 L 762.75 446.22168 L 762.75 446.22168 Q 762.828125 446.695313 762.891602 447.149414 L 762.891602 447.149414 L 762.891602 447.149414 Q 762.955078 447.603516 762.964844 447.876953 L 762.964844 447.876953 L 763.023438 447.876953 L 763.023438 447.876953 Q 763.111328 447.173828 763.335938 445.948242 L 763.335938 445.948242 L 763.335938 445.948242 Q 763.560547 444.722656 763.658203 444.292969 L 763.658203 444.292969 L 764.966797 439.458984 L 767.886719 439.458984 L 764.742188 450.376953 L 764.742188 450.376953 Z  M 779.722656 443.257813 L 779.722656 450.376953 L 776.744141 450.376953 L 776.744141 444 L 776.744141 444 Q 776.744141 441.636719 774.986328 441.636719 L 774.986328 441.636719 L 774.986328 441.636719 Q 773.736328 441.636719 773.179688 442.486328 L 773.179688 442.486328 L 773.179688 442.486328 Q 772.623047 443.335938 772.623047 445.240234 L 772.623047 445.240234 L 772.623047 450.376953 L 769.644531 450.376953 L 769.644531 435.181641 L 772.623047 435.181641 L 772.623047 438.277344 L 772.623047 438.277344 Q 772.623047 438.638672 772.554688 439.976563 L 772.554688 439.976563 L 772.486328 440.855469 L 772.642578 440.855469 L 772.642578 440.855469 Q 773.638672 439.253906 775.806641 439.253906 L 775.806641 439.253906 L 775.806641 439.253906 Q 777.730469 439.253906 778.726563 440.289063 L 778.726563 440.289063 L 778.726563 440.289063 Q 779.722656 441.324219 779.722656 443.257813 L 779.722656 443.257813 L 779.722656 443.257813 Z  M 785.162109 444.898438 L 785.162109 444.898438 L 785.162109 444.898438 Q 785.162109 446.519531 785.694336 447.349609 L 785.694336 447.349609 L 785.694336 447.349609 Q 786.226563 448.179688 787.427734 448.179688 L 787.427734 448.179688 L 787.427734 448.179688 Q 788.619141 448.179688 789.141602 447.354492 L 789.141602 447.354492 L 789.141602 447.354492 Q 789.664063 446.529297 789.664063 444.898438 L 789.664063 444.898438 L 789.664063 444.898438 Q 789.664063 443.277344 789.136719 442.466797 L 789.136719 442.466797 L 789.136719 442.466797 Q 788.609375 441.65625 787.408203 441.65625 L 787.408203 441.65625 L 787.408203 441.65625 Q 786.216797 441.65625 785.689453 442.461914 L 785.689453 442.461914 L 785.689453 442.461914 Q 785.162109 443.267578 785.162109 444.898438 Z  M 792.710938 444.898438 L 792.710938 444.898438 L 792.710938 444.898438 Q 792.710938 447.564453 791.304688 449.068359 L 791.304688 449.068359 L 791.304688 449.068359 Q 789.898438 450.572266 787.388672 450.572266 L 787.388672 450.572266 L 787.388672 450.572266 Q 785.816406 450.572266 784.615234 449.883789 L 784.615234 449.883789 L 784.615234 449.883789 Q 783.414063 449.195313 782.769531 447.90625 L 782.769531 447.90625 L 782.769531 447.90625 Q 782.125 446.617188 782.125 444.898438 L 782.125 444.898438 L 782.125 444.898438 Q 782.125 442.222656 783.521484 440.738281 L 783.521484 440.738281 L 783.521484 440.738281 Q 784.917969 439.253906 787.447266 439.253906 L 787.447266 439.253906 L 787.447266 439.253906 Q 789.019531 439.253906 790.220703 439.9375 L 790.220703 439.9375 L 790.220703 439.9375 Q 791.421875 440.621094 792.066406 441.900391 L 792.066406 441.900391 L 792.066406 441.900391 Q 792.710938 443.179688 792.710938 444.898438 Z  M 717.203125 439.458984 L 721.011719 439.458984 L 721.011719 440.972656 L 719.302734 441.412109 L 719.302734 441.412109 Q 719.771484 442.144531 719.771484 443.052734 L 719.771484 443.052734 L 719.771484 443.052734 Q 719.771484 444.810547 718.545898 445.791992 L 718.545898 445.791992 L 718.545898 445.791992 Q 717.320313 446.773438 715.142578 446.773438 L 715.142578 446.773438 L 714.605469 446.744141 L 714.166016 446.695313 L 714.166016 446.695313 Q 713.707031 447.046875 713.707031 447.476563 L 713.707031 447.476563 L 713.707031 447.476563 Q 713.707031 448.121094 715.347656 448.121094 L 715.347656 448.121094 L 717.203125 448.121094 L 717.203125 448.121094 Q 719 448.121094 719.942383 448.892578 L 719.942383 448.892578 L 719.942383 448.892578 Q 720.884766 449.664063 720.884766 451.158203 L 720.884766 451.158203 L 720.884766 451.158203 Q 720.884766 453.072266 719.288086 454.126953 L 719.288086 454.126953 L 719.288086 454.126953 Q 717.691406 455.181641 714.703125 455.181641 L 714.703125 455.181641 L 714.703125 455.181641 Q 712.417969 455.181641 711.211914 454.385742 L 711.211914 454.385742 L 711.211914 454.385742 Q 710.005859 453.589844 710.005859 452.154297 L 710.005859 452.154297 L 710.005859 452.154297 Q 710.005859 451.167969 710.621094 450.503906 L 710.621094 450.503906 L 710.621094 450.503906 Q 711.236328 449.839844 712.427734 449.556641 L 712.427734 449.556641 L 712.427734 449.556641 Q 711.96875 449.361328 711.626953 448.916992 L 711.626953 448.916992 L 711.626953 448.916992 Q 711.285156 448.472656 711.285156 447.974609 L 711.285156 447.974609 L 711.285156 447.974609 Q 711.285156 447.349609 711.646484 446.93457 L 711.646484 446.93457 L 711.646484 446.93457 Q 712.007813 446.519531 712.691406 446.119141 L 712.691406 446.119141 L 712.691406 446.119141 Q 711.832031 445.748047 711.329102 444.927734 L 711.329102 444.927734 L 711.329102 444.927734 Q 710.826172 444.107422 710.826172 442.994141 L 710.826172 442.994141 L 710.826172 442.994141 Q 710.826172 441.207031 711.988281 440.230469 L 711.988281 440.230469 L 711.988281 440.230469 Q 713.150391 439.253906 715.308594 439.253906 L 715.308594 439.253906 L 715.308594 439.253906 Q 715.767578 439.253906 716.397461 439.336914 L 716.397461 439.336914 L 716.397461 439.336914 Q 717.027344 439.419922 717.203125 439.458984 L 717.203125 439.458984 L 717.203125 439.458984 Z  M 712.583984 451.919922 L 712.583984 451.919922 L 712.583984 451.919922 Q 712.583984 452.535156 713.174805 452.886719 L 713.174805 452.886719 L 713.174805 452.886719 Q 713.765625 453.238281 714.830078 453.238281 L 714.830078 453.238281 L 714.830078 453.238281 Q 716.431641 453.238281 717.339844 452.798828 L 717.339844 452.798828 L 717.339844 452.798828 Q 718.248047 452.359375 718.248047 451.597656 L 718.248047 451.597656 L 718.248047 451.597656 Q 718.248047 450.982422 717.710938 450.748047 L 717.710938 450.748047 L 717.710938 450.748047 Q 717.173828 450.513672 716.050781 450.513672 L 716.050781 450.513672 L 714.507813 450.513672 L 714.507813 450.513672 Q 713.6875 450.513672 713.135742 450.899414 L 713.135742 450.899414 L 713.135742 450.899414 Q 712.583984 451.285156 712.583984 451.919922 Z  M 713.667969 443.033203 L 713.667969 443.033203 L 713.667969 443.033203 Q 713.667969 443.921875 714.073242 444.439453 L 714.073242 444.439453 L 714.073242 444.439453 Q 714.478516 444.957031 715.308594 444.957031 L 715.308594 444.957031 L 715.308594 444.957031 Q 716.148438 444.957031 716.539063 444.439453 L 716.539063 444.439453 L 716.539063 444.439453 Q 716.929688 443.921875 716.929688 443.033203 L 716.929688 443.033203 L 716.929688 443.033203 Q 716.929688 441.060547 715.308594 441.060547 L 715.308594 441.060547 L 715.308594 441.060547 Q 713.667969 441.060547 713.667969 443.033203 Z  M 732.828125 450.376953 L 730.542969 450.376953 L 730.142578 448.980469 L 729.986328 448.980469 L 729.986328 448.980469 Q 729.507813 449.742188 728.628906 450.157227 L 728.628906 450.157227 L 728.628906 450.157227 Q 727.75 450.572266 726.626953 450.572266 L 726.626953 450.572266 L 726.626953 450.572266 Q 724.703125 450.572266 723.726563 449.541992 L 723.726563 449.541992 L 723.726563 449.541992 Q 722.75 448.511719 722.75 446.578125 L 722.75 446.578125 L 722.75 439.458984 L 725.728516 439.458984 L 725.728516 445.835938 L 725.728516 445.835938 Q 725.728516 447.017578 726.148438 447.608398 L 726.148438 447.608398 L 726.148438 447.608398 Q 726.568359 448.199219 727.486328 448.199219 L 727.486328 448.199219 L 727.486328 448.199219 Q 728.736328 448.199219 729.292969 447.364258 L 729.292969 447.364258 L 729.292969 447.364258 Q 729.849609 446.529297 729.849609 444.595703 L 729.849609 444.595703 L 729.849609 439.458984 L 732.828125 439.458984 L 732.828125 450.376953 L 732.828125 450.376953 Z  M 738.726563 450.298828 L 734.390625 439.458984 L 737.652344 439.458984 L 739.712891 445.601563 L 739.712891 445.601563 Q 739.976563 446.402344 740.074219 447.496094 L 740.074219 447.496094 L 740.132813 447.496094 L 740.132813 447.496094 Q 740.240234 446.490234 740.552734 445.601563 L 740.552734 445.601563 L 742.574219 439.458984 L 745.767578 439.458984 L 741.148438 451.773438 L 741.148438 451.773438 Q 740.513672 453.482422 739.336914 454.332031 L 739.336914 454.332031 L 739.336914 454.332031 Q 738.160156 455.181641 736.587891 455.181641 L 736.587891 455.181641 L 736.587891 455.181641 Q 735.816406 455.181641 735.074219 455.015625 L 735.074219 455.015625 L 735.074219 452.652344 L 735.074219 452.652344 Q 735.611328 452.779297 736.246094 452.779297 L 736.246094 452.779297 L 736.246094 452.779297 Q 737.037109 452.779297 737.62793 452.295898 L 737.62793 452.295898 L 737.62793 452.295898 Q 738.21875 451.8125 738.550781 450.835938 L 738.550781 450.835938 L 738.726563 450.298828 L 738.726563 450.298828 Z  M 703.248047 450.376953 L 701.167969 450.376953 L 700.591797 448.892578 L 700.513672 448.892578 L 700.513672 448.892578 Q 699.761719 449.839844 698.96582 450.206055 L 698.96582 450.206055 L 698.96582 450.206055 Q 698.169922 450.572266 696.890625 450.572266 L 696.890625 450.572266 L 696.890625 450.572266 Q 695.318359 450.572266 694.415039 449.673828 L 694.415039 449.673828 L 694.415039 449.673828 Q 693.511719 448.775391 693.511719 447.115234 L 693.511719 447.115234 L 693.511719 447.115234 Q 693.511719 445.376953 694.727539 444.551758 L 694.727539 444.551758 L 694.727539 444.551758 Q 695.943359 443.726563 698.394531 443.638672 L 698.394531 443.638672 L 700.289063 443.580078 L 700.289063 443.101563 L 700.289063 443.101563 Q 700.289063 441.441406 698.589844 441.441406 L 698.589844 441.441406 L 698.589844 441.441406 Q 697.28125 441.441406 695.513672 442.232422 L 695.513672 442.232422 L 694.527344 440.220703 L 694.527344 440.220703 Q 696.412109 439.234375 698.707031 439.234375 L 698.707031 439.234375 L 698.707031 439.234375 Q 700.904297 439.234375 702.076172 440.191406 L 702.076172 440.191406 L 702.076172 440.191406 Q 703.248047 441.148438 703.248047 443.101563 L 703.248047 443.101563 L 703.248047 450.376953 L 703.248047 450.376953 Z  M 700.289063 446.216797 L 700.289063 445.318359 L 699.136719 445.357422 L 699.136719 445.357422 Q 697.837891 445.396484 697.203125 445.826172 L 697.203125 445.826172 L 697.203125 445.826172 Q 696.568359 446.255859 696.568359 447.134766 L 696.568359 447.134766 L 696.568359 447.134766 Q 696.568359 448.394531 698.013672 448.394531 L 698.013672 448.394531 L 698.013672 448.394531 Q 699.048828 448.394531 699.668945 447.798828 L 699.668945 447.798828 L 699.668945 447.798828 Q 700.289063 447.203125 700.289063 446.216797 L 700.289063 446.216797 L 700.289063 446.216797 Z  M 650.289063 455.181641 L 650.289063 455.181641 L 650.289063 455.181641 Q 649.146484 455.181641 648.326172 454.9375 L 648.326172 454.9375 L 648.326172 452.59375 L 648.326172 452.59375 Q 649.009766 452.779297 649.722656 452.779297 L 649.722656 452.779297 L 649.722656 452.779297 Q 650.474609 452.779297 650.821289 452.359375 L 650.821289 452.359375 L 650.821289 452.359375 Q 651.167969 451.939453 651.167969 451.119141 L 651.167969 451.119141 L 651.167969 439.458984 L 654.146484 439.458984 L 654.146484 451.558594 L 654.146484 451.558594 Q 654.146484 453.296875 653.140625 454.239258 L 653.140625 454.239258 L 653.140625 454.239258 Q 652.134766 455.181641 650.289063 455.181641 Z  M 651.041016 436.636719 L 651.041016 436.636719 L 651.041016 436.636719 Q 651.041016 435.181641 652.662109 435.181641 L 652.662109 435.181641 L 652.662109 435.181641 Q 654.283203 435.181641 654.283203 436.636719 L 654.283203 436.636719 L 654.283203 436.636719 Q 654.283203 437.330078 653.87793 437.71582 L 653.87793 437.71582 L 653.87793 437.71582 Q 653.472656 438.101563 652.662109 438.101563 L 652.662109 438.101563 L 652.662109 438.101563 Q 651.041016 438.101563 651.041016 436.636719 Z  M 667.291016 450.376953 L 665.005859 450.376953 L 664.605469 448.980469 L 664.449219 448.980469 L 664.449219 448.980469 Q 663.970703 449.742188 663.091797 450.157227 L 663.091797 450.157227 L 663.091797 450.157227 Q 662.212891 450.572266 661.089844 450.572266 L 661.089844 450.572266 L 661.089844 450.572266 Q 659.166016 450.572266 658.189453 449.541992 L 658.189453 449.541992 L 658.189453 449.541992 Q 657.212891 448.511719 657.212891 446.578125 L 657.212891 446.578125 L 657.212891 439.458984 L 660.191406 439.458984 L 660.191406 445.835938 L 660.191406 445.835938 Q 660.191406 447.017578 660.611328 447.608398 L 660.611328 447.608398 L 660.611328 447.608398 Q 661.03125 448.199219 661.949219 448.199219 L 661.949219 448.199219 L 661.949219 448.199219 Q 663.199219 448.199219 663.755859 447.364258 L 663.755859 447.364258 L 663.755859 447.364258 Q 664.3125 446.529297 664.3125 444.595703 L 664.3125 444.595703 L 664.3125 439.458984 L 667.291016 439.458984 L 667.291016 450.376953 L 667.291016 450.376953 Z  M 678.033203 447.134766 L 678.033203 447.134766 L 678.033203 447.134766 Q 678.033203 448.814453 676.866211 449.693359 L 676.866211 449.693359 L 676.866211 449.693359 Q 675.699219 450.572266 673.375 450.572266 L 673.375 450.572266 L 673.375 450.572266 Q 672.183594 450.572266 671.34375 450.411133 L 671.34375 450.411133 L 671.34375 450.411133 Q 670.503906 450.25 669.771484 449.9375 L 669.771484 449.9375 L 669.771484 447.476563 L 669.771484 447.476563 Q 670.601563 447.867188 671.641602 448.130859 L 671.641602 448.130859 L 671.641602 448.130859 Q 672.681641 448.394531 673.472656 448.394531 L 673.472656 448.394531 L 673.472656 448.394531 Q 675.09375 448.394531 675.09375 447.457031 L 675.09375 447.457031 L 675.09375 447.457031 Q 675.09375 447.105469 674.878906 446.885742 L 674.878906 446.885742 L 674.878906 446.885742 Q 674.664063 446.666016 674.136719 446.387695 L 674.136719 446.387695 L 674.136719 446.387695 Q 673.609375 446.109375 672.730469 445.738281 L 672.730469 445.738281 L 672.730469 445.738281 Q 671.470703 445.210938 670.879883 444.761719 L 670.879883 444.761719 L 670.879883 444.761719 Q 670.289063 444.3125 670.020508 443.731445 L 670.020508 443.731445 L 670.020508 443.731445 Q 669.751953 443.150391 669.751953 442.300781 L 669.751953 442.300781 L 669.751953 442.300781 Q 669.751953 440.845703 670.879883 440.049805 L 670.879883 440.049805 L 670.879883 440.049805 Q 672.007813 439.253906 674.078125 439.253906 L 674.078125 439.253906 L 674.078125 439.253906 Q 676.050781 439.253906 677.916016 440.113281 L 677.916016 440.113281 L 677.017578 442.261719 L 677.017578 442.261719 Q 676.197266 441.910156 675.484375 441.685547 L 675.484375 441.685547 L 675.484375 441.685547 Q 674.771484 441.460938 674.029297 441.460938 L 674.029297 441.460938 L 674.029297 441.460938 Q 672.710938 441.460938 672.710938 442.173828 L 672.710938 442.173828 L 672.710938 442.173828 Q 672.710938 442.574219 673.135742 442.867188 L 673.135742 442.867188 L 673.135742 442.867188 Q 673.560547 443.160156 674.996094 443.736328 L 674.996094 443.736328 L 674.996094 443.736328 Q 676.275391 444.253906 676.871094 444.703125 L 676.871094 444.703125 L 676.871094 444.703125 Q 677.466797 445.152344 677.75 445.738281 L 677.75 445.738281 L 677.75 445.738281 Q 678.033203 446.324219 678.033203 447.134766 Z  M 684.957031 448.199219 L 684.957031 448.199219 L 684.957031 448.199219 Q 685.738281 448.199219 686.832031 447.857422 L 686.832031 447.857422 L 686.832031 450.074219 L 686.832031 450.074219 Q 685.71875 450.572266 684.097656 450.572266 L 684.097656 450.572266 L 684.097656 450.572266 Q 682.310547 450.572266 681.495117 449.668945 L 681.495117 449.668945 L 681.495117 449.668945 Q 680.679688 448.765625 680.679688 446.958984 L 680.679688 446.958984 L 680.679688 441.695313 L 679.253906 441.695313 L 679.253906 440.435547 L 680.894531 439.439453 L 681.753906 437.134766 L 683.658203 437.134766 L 683.658203 439.458984 L 686.714844 439.458984 L 686.714844 441.695313 L 683.658203 441.695313 L 683.658203 446.958984 L 683.658203 446.958984 Q 683.658203 447.59375 684.014648 447.896484 L 684.014648 447.896484 L 684.014648 447.896484 Q 684.371094 448.199219 684.957031 448.199219 Z  M 617.652344 450.376953 L 614.625 450.376953 L 614.625 436.099609 L 617.652344 436.099609 L 617.652344 450.376953 L 617.652344 450.376953 Z  M 620.748047 436.099609 L 623.472656 436.099609 L 623.072266 441.255859 L 621.148438 441.255859 L 620.748047 436.099609 L 620.748047 436.099609 Z  M 636.109375 444.898438 L 636.109375 450.376953 L 633.130859 450.376953 L 633.130859 444 L 633.130859 444 Q 633.130859 442.818359 632.735352 442.227539 L 632.735352 442.227539 L 632.735352 442.227539 Q 632.339844 441.636719 631.490234 441.636719 L 631.490234 441.636719 L 631.490234 441.636719 Q 630.347656 441.636719 629.830078 442.476563 L 629.830078 442.476563 L 629.830078 442.476563 Q 629.3125 443.316406 629.3125 445.240234 L 629.3125 445.240234 L 629.3125 450.376953 L 626.333984 450.376953 L 626.333984 439.458984 L 628.609375 439.458984 L 629.009766 440.855469 L 629.175781 440.855469 L 629.175781 440.855469 Q 629.615234 440.103516 630.445313 439.678711 L 630.445313 439.678711 L 630.445313 439.678711 Q 631.275391 439.253906 632.349609 439.253906 L 632.349609 439.253906 L 632.349609 439.253906 Q 634.800781 439.253906 635.669922 440.855469 L 635.669922 440.855469 L 635.933594 440.855469 L 635.933594 440.855469 Q 636.373047 440.09375 637.227539 439.673828 L 637.227539 439.673828 L 637.227539 439.673828 Q 638.082031 439.253906 639.15625 439.253906 L 639.15625 439.253906 L 639.15625 439.253906 Q 641.011719 439.253906 641.963867 440.206055 L 641.963867 440.206055 L 641.963867 440.206055 Q 642.916016 441.158203 642.916016 443.257813 L 642.916016 443.257813 L 642.916016 450.376953 L 639.927734 450.376953 L 639.927734 444 L 639.927734 444 Q 639.927734 442.818359 639.532227 442.227539 L 639.532227 442.227539 L 639.532227 442.227539 Q 639.136719 441.636719 638.287109 441.636719 L 638.287109 441.636719 L 638.287109 441.636719 Q 637.193359 441.636719 636.651367 442.417969 L 636.651367 442.417969 L 636.651367 442.417969 Q 636.109375 443.199219 636.109375 444.898438 L 636.109375 444.898438 L 636.109375 444.898438 Z " fill-rule="evenodd" fill="rgb(0,0,0)"/></svg>