<?xml version="1.0" encoding="iso-8859-1"?>
<!-- Generator: Adobe Illustrator 19.0.0, SVG Export Plug-In . SVG Version: 6.00 Build 0)  -->
<svg version="1.1" id="Capa_1" xmlns="http://www.w3.org/2000/svg" xmlns:xlink="http://www.w3.org/1999/xlink" x="0px" y="0px"
	 viewBox="0 0 512 512" style="enable-background:new 0 0 512 512;" xml:space="preserve">
<path style="fill:#D7DBDD;" d="M482.278,226.276C482.278,101.307,380.971,0,256.002,0S29.726,101.307,29.726,226.276
	c0,78.258,39.731,147.233,100.118,187.865v56.011c0,23.016,18.831,41.847,41.847,41.847l0,0c23.016,0,41.848-18.831,41.848-41.847
	h0.615c0,23.016,18.831,41.847,41.848,41.847l0,0c23.016,0,41.847-18.831,41.847-41.847h0.615c0,23.016,18.831,41.847,41.848,41.847
	l0,0c23.016,0,41.848-18.831,41.848-41.847v-56.011C442.547,373.509,482.278,304.534,482.278,226.276z"/>
<path style="fill:#C6CBCC;" d="M256.002,0.004c9.084,0,18.033,0.537,26.839,1.579c-112.32,13.264-199.442,108.81-199.442,224.69
	c0,73.239,34.792,138.343,88.744,179.696c7.156,5.485,11.374,13.967,11.374,22.984v41.2c0,12.831,5.853,24.351,15.009,32.041
	c-7.277,6.111-16.65,9.806-26.839,9.806c-23.009,0-41.847-18.828-41.847-41.847v-56.01
	c-60.386-40.63-100.118-109.605-100.118-187.87C29.722,101.309,131.038,0.004,256.002,0.004z"/>
<circle style="fill:#738182;" cx="173.94" cy="282.32" r="59.52"/>
<path style="fill:#576666;" d="M224.343,313.963c-10.519,16.743-29.171,27.871-50.405,27.871c-32.867,0-59.519-26.642-59.519-59.509
	c0-26.828,17.755-49.507,42.147-56.939c-5.78,9.166-9.115,20.015-9.115,31.649c0,32.867,26.653,59.509,59.52,59.509
	C213.009,316.543,218.841,315.645,224.343,313.963z"/>
<circle style="fill:#738182;" cx="338.07" cy="282.32" r="59.52"/>
<path style="fill:#576666;" d="M388.475,313.967c-10.519,16.743-29.171,27.871-50.405,27.871c-32.867,0-59.519-26.642-59.519-59.509
	c0-26.828,17.755-49.507,42.147-56.939c-5.78,9.166-9.115,20.015-9.115,31.649c0,32.867,26.653,59.509,59.52,59.509
	C377.141,316.548,382.973,315.65,388.475,313.967z"/>
<path style="fill:#738182;" d="M257.994,334.372c-1.15-0.975-2.833-0.975-3.984,0c-7.639,6.479-34.004,30.481-21.11,43.007
	c2.846,2.764,7.108,4.218,11.467,4.218h11.634h11.634c4.359,0,8.621-1.454,11.467-4.218
	C291.997,364.854,265.633,340.851,257.994,334.372z"/>
<path style="fill:#576666;" d="M279.104,377.384c-2.849,2.756-7.112,4.212-11.468,4.212h-23.267c-4.356,0-8.619-1.455-11.468-4.212
	c-12.897-12.533,13.468-36.53,21.109-43.009c1.152-0.977,2.836-0.975,3.987,0.003c0.502,0.427,1.085,0.929,1.733,1.499
	c-6.978,8.991-11.706,19.313-4.635,26.178c2.849,2.766,7.112,4.222,11.468,4.222h15.763
	C283.098,370.396,282.324,374.246,279.104,377.384z"/>
<path d="M260.8,338.802L260.8,338.802L260.8,338.802z"/>
<g>
</g>
<g>
</g>
<g>
</g>
<g>
</g>
<g>
</g>
<g>
</g>
<g>
</g>
<g>
</g>
<g>
</g>
<g>
</g>
<g>
</g>
<g>
</g>
<g>
</g>
<g>
</g>
<g>
</g>
</svg>
